<?xml version="1.0" standalone="no"?>
<!DOCTYPE svg PUBLIC "-//W3C//DTD SVG 20010904//EN"
 "http://www.w3.org/TR/2001/REC-SVG-20010904/DTD/svg10.dtd">
<svg version="1.0" xmlns="http://www.w3.org/2000/svg"
 width="1000.000000pt" height="600.000000pt" viewBox="0 0 1000.000000 600.000000"
 preserveAspectRatio="xMidYMid meet">

<g transform="translate(0.000000,600.000000) scale(0.100000,-0.100000)"
fill="#000000" stroke="none">
<path d="M0 3000 l0 -3000 5000 0 5000 0 0 3000 0 3000 -5000 0 -5000 0 0
-3000z m2728 1206 c580 -127 982 -621 982 -1206 0 -585 -403 -1080 -982 -1206
-114 -25 -314 -29 -433 -10 -265 44 -502 166 -687 353 -234 238 -352 528 -352
863 0 335 118 625 352 863 180 182 419 307 673 352 106 18 344 14 447 -9z
m4027 -679 c54 -30 78 -78 71 -140 -6 -60 -35 -101 -85 -123 l-39 -17 48 -47
c67 -65 93 -119 92 -195 0 -151 -113 -254 -288 -263 -101 -5 -144 8 -196 60
l-40 40 -21 -20 c-32 -29 -143 -82 -172 -82 -35 0 -72 40 -81 86 -4 23 -2 73
6 119 7 44 14 105 14 135 1 54 1 55 -30 58 -41 4 -74 -24 -114 -100 -31 -57
-34 -71 -35 -153 -1 -49 -5 -97 -9 -106 -10 -22 -59 -49 -90 -49 -29 0 -43 20
-52 78 l-6 41 -31 -31 c-50 -49 -122 -78 -195 -78 -74 0 -121 19 -157 62 l-25
30 -34 -25 c-83 -64 -256 -88 -336 -47 -73 37 -98 104 -80 208 15 90 52 162
106 212 57 52 102 71 170 71 91 0 138 -53 115 -130 -16 -56 -51 -85 -149 -124
-80 -32 -87 -37 -90 -65 -2 -22 3 -35 24 -51 76 -59 262 12 277 107 10 57 63
157 104 193 79 69 199 94 235 49 22 -27 22 -40 4 -85 -16 -38 -38 -44 -70 -20
-28 21 -49 19 -74 -8 -30 -32 -52 -100 -52 -163 0 -45 4 -56 26 -73 40 -31 93
-28 140 10 55 43 103 100 104 124 2 89 80 340 141 455 28 53 39 66 62 68 24 3
30 -2 47 -42 18 -38 19 -51 10 -93 -6 -26 -27 -77 -47 -112 -20 -35 -39 -80
-43 -98 l-8 -34 43 40 c48 44 89 56 167 49 42 -4 57 -11 80 -37 35 -39 37 -97
8 -219 -35 -146 -25 -162 57 -88 39 35 51 55 62 96 19 72 76 133 123 128 37
-3 36 0 23 -129 -9 -75 2 -105 43 -120 59 -23 144 19 158 78 14 54 -5 92 -90
182 -105 110 -120 138 -120 216 1 64 17 106 56 142 60 56 172 70 243 30z
m-1739 -1 c9 -22 -34 -95 -59 -101 -12 -3 -69 -4 -126 -3 l-104 3 -33 -195
c-18 -107 -38 -255 -45 -328 -7 -73 -18 -141 -25 -150 -9 -12 -28 -16 -70 -17
l-59 0 -3 75 c-5 119 44 374 103 538 15 41 25 75 23 77 -5 5 -135 -22 -192
-40 -68 -21 -97 -20 -89 3 16 47 88 101 175 132 46 17 83 19 276 20 182 0 224
-3 228 -14z m2168 -1 c23 -24 35 -79 26 -121 -5 -20 -25 -69 -46 -108 -20 -39
-40 -86 -45 -104 l-7 -33 43 40 c48 44 89 56 166 49 103 -10 130 -84 90 -251
-36 -152 -28 -165 55 -92 45 39 52 50 57 94 12 100 79 191 170 231 83 37 220
26 262 -20 16 -18 16 -19 -6 -24 -13 -3 -47 -7 -76 -10 -129 -12 -216 -114
-198 -232 9 -64 45 -94 109 -94 28 0 58 5 66 10 12 8 11 12 -7 32 -33 37 -45
68 -46 117 -1 89 49 141 138 141 53 0 79 -20 93 -73 9 -32 1 -114 -13 -138 -9
-14 51 -11 62 4 5 6 26 62 45 122 70 215 93 244 149 183 16 -16 29 -37 29 -46
0 -13 2 -13 18 1 29 27 89 47 137 47 125 0 185 -90 150 -224 -19 -72 -57 -130
-113 -173 l-44 -33 29 0 c48 0 132 49 195 113 64 67 86 67 74 3 -13 -66 -64
-127 -140 -166 -65 -33 -75 -35 -167 -35 -84 0 -101 3 -126 21 -21 16 -28 30
-28 54 0 30 4 35 35 43 54 14 90 46 116 101 29 61 32 140 7 168 -37 41 -114 9
-158 -66 -48 -81 -63 -139 -95 -352 -18 -115 -38 -219 -46 -231 -20 -31 -42
-29 -81 9 -39 38 -41 61 -18 233 8 61 15 111 15 113 0 1 -24 2 -54 2 -36 0
-58 -5 -66 -16 -23 -27 -95 -64 -146 -73 -97 -18 -210 21 -244 84 l-14 25 -25
-24 c-33 -30 -144 -86 -171 -86 -81 0 -108 92 -74 254 8 41 14 90 12 108 -3
29 -7 33 -34 36 -41 4 -74 -24 -115 -100 -30 -57 -34 -72 -35 -148 -1 -104 -6
-121 -43 -143 -49 -29 -80 -23 -98 21 -13 30 -14 59 -9 151 9 147 28 247 72
373 34 96 84 208 106 236 14 17 43 15 62 -3z"/>
<path d="M2363 3550 c-85 -13 -160 -41 -226 -85 -97 -65 -154 -155 -98 -155 9
0 71 15 138 34 67 19 146 37 177 41 l56 7 -25 -57 c-72 -161 -165 -588 -165
-753 0 -131 17 -151 116 -133 89 16 99 33 108 171 7 117 33 306 82 597 l29
173 162 0 161 0 24 28 c29 35 55 109 42 121 -12 11 -515 21 -581 11z"/>
<path d="M6600 3432 c-30 -25 -22 -57 30 -116 l39 -46 26 35 c15 19 29 52 32
73 4 33 2 42 -18 56 -31 21 -81 20 -109 -2z"/>
<path d="M5061 3135 c-20 -27 -37 -82 -27 -92 8 -9 76 37 93 63 33 51 -27 78
-66 29z"/>
<path d="M7927 3064 c-13 -13 -7 -81 8 -94 12 -10 15 -7 20 13 13 50 -6 103
-28 81z"/>
</g>
</svg>
